{
  "accessors": [
    {
      "bufferView": 1,
      "componentType": 5126,
      "count": 729,
      "max": [
        2.200000047683716,
        2.200000047683716,
        2.200000047683716
      ],
      "min": [
        -2.200000047683716,
        -2.200000047683716,
        -2.200000047683716
      ],
      "type": "VEC3"
    },
    {
      "bufferView": 1,
      "byteOffset": 8748,
      "componentType": 5126,
      "count": 729,
      "max": [
        0.9999971985816956,
        1.0,
        1.0
      ],
      "min": [
        -0.9999971985816956,
        -1.0,
        -1.0
      ],
      "type": "VEC3"
    },
    {
      "bufferView": 0,
      "componentType": 5125,
      "count": 4110,
      "type": "SCALAR"
    },
    {
      "bufferView": 1,
      "byteOffset": 17496,
      "componentType": 5126,
      "count": 183,
      "max": [
        1.9874999523162842,
        -0.3910900056362152,
        1.3534599542617798
      ],
      "min": [
        0.6527500152587891,
        -1.6452499628067017,
        -0.7756699919700623
      ],
      "type": "VEC3"
    },
    {
      "bufferView": 1,
      "byteOffset": 19692,
      "componentType": 5126,
      "count": 183,
      "max": [
        0.9995849132537842,
        0.31779745221138,
        0.9684747457504272
      ],
      "min": [
        -0.024200545623898506,
        -0.9975492358207703,
        -0.8605027198791504
      ],
      "type": "VEC3"
    },
    {
      "bufferView": 0,
      "byteOffset": 16440,
      "componentType": 5125,
      "count": 810,
      "type": "SCALAR"
    },
    {
      "bufferView": 1,
      "byteOffset": 21888,
      "componentType": 5126,
      "count": 180,
      "max": [
        2.0008299350738525,
        -0.7424799799919128,
        1.3776999711990356
      ],
      "min": [
        1.2986899614334106,
        -1.6656399965286255,
        -0.8042200207710266
      ],
      "type": "VEC3"
    },
    {
      "bufferView": 1,
      "byteOffset": 24048,
      "componentType": 5126,
      "count": 180,
      "max": [
        0.9948844909667969,
        0.25593698024749756,
        0.947407066822052
      ],
      "min": [
        0.044981010258197784,
        -0.9942144751548767,
        -0.8169678449630737
      ],
      "type": "VEC3"
    },
    {
      "bufferView": 0,
      "byteOffset": 19680,
      "componentType": 5125,
      "count": 540,
      "type": "SCALAR"
    }
  ],
  "asset": {
    "extras": {
      "author": "Adam.Klimo (https://sketchfab.com/Adam.Klimo)",
      "license": "CC-BY-4.0 (http://creativecommons.org/licenses/by/4.0/)",
      "source": "https://sketchfab.com/3d-models/bowling-ball-97b8b4e8a83045c5a5673f19d6b21e39",
      "title": "Bowling Ball"
    },
    "generator": "Sketchfab-12.66.0",
    "version": "2.0"
  },
  "bufferViews": [
    {
      "buffer": 0,
      "byteLength": 21840,
      "name": "floatBufferViews",
      "target": 34963
    },
    {
      "buffer": 0,
      "byteLength": 26208,
      "byteOffset": 21840,
      "byteStride": 12,
      "name": "floatBufferViews",
      "target": 34962
    }
  ],
  "buffers": [
    {
      "byteLength": 48048,
      "uri": "scene.bin"
    }
  ],
  "materials": [
    {
      "doubleSided": true,
      "name": "Bowling_Ball",
      "pbrMetallicRoughness": {
        "baseColorFactor": [
          0.5931055545806885,
          0.8000000715255737,
          0.005525690969079733,
          1.0
        ],
        "metallicFactor": 0.0,
        "roughnessFactor": 0.6
      }
    },
    {
      "doubleSided": true,
      "name": "Inside_ball",
      "pbrMetallicRoughness": {
        "baseColorFactor": [
          0.08535605669021606,
          0.10247542709112167,
          0.023165689781308174,
          1.0
        ],
        "metallicFactor": 0.0,
        "roughnessFactor": 0.6
      }
    },
    {
      "doubleSided": true,
      "name": "Rings",
      "pbrMetallicRoughness": {
        "baseColorFactor": [
          0.8000000715255737,
          0.6100927591323853,
          0.0,
          1.0
        ],
        "metallicFactor": 0.0,
        "roughnessFactor": 0.6
      }
    }
  ],
  "meshes": [
    {
      "name": "Icosphere_0",
      "primitives": [
        {
          "attributes": {
            "NORMAL": 1,
            "POSITION": 0
          },
          "indices": 2,
          "material": 0,
          "mode": 4
        }
      ]
    },
    {
      "name": "Icosphere_1",
      "primitives": [
        {
          "attributes": {
            "NORMAL": 4,
            "POSITION": 3
          },
          "indices": 5,
          "material": 1,
          "mode": 4
        }
      ]
    },
    {
      "name": "Icosphere_2",
      "primitives": [
        {
          "attributes": {
            "NORMAL": 7,
            "POSITION": 6
          },
          "indices": 8,
          "material": 2,
          "mode": 4
        }
      ]
    }
  ],
  "nodes": [
    {
      "children": [
        1
      ],
      "matrix": [
        1.0,
        0.0,
        0.0,
        0.0,
        0.0,
        2.220446049250313e-16,
        -1.0,
        0.0,
        0.0,
        1.0,
        2.220446049250313e-16,
        0.0,
        0.0,
        0.0,
        0.0,
        1.0
      ],
      "name": "Sketchfab_model"
    },
    {
      "children": [
        2,
        4
      ],
      "name": "Root"
    },
    {
      "children": [
        3
      ],
      "matrix": [
        -0.29086000000000006,
        0.9551700000000001,
        -0.05519000000000001,
        0.0,
        -0.7711,
        -0.19988000000000003,
        0.6045200000000001,
        0.0,
        0.5663900000000001,
        0.21839000000000003,
        0.7946700000000001,
        0.0,
        4.076250000000001,
        1.00545,
        5.903860000000001,
        1.0
      ],
      "name": "Lamp"
    },
    {
      "name": "Lamp"
    },
    {
      "children": [
        5,
        6,
        7
      ],
      "matrix": [
        1.0,
        0.0,
        0.0,
        0.0,
        0.0,
        1.0,
        0.0,
        0.0,
        0.0,
        0.0,
        1.0,
        0.0,
        0.0,
        0.0,
        2.2,
        1.0
      ],
      "name": "Icosphere"
    },
    {
      "mesh": 0,
      "name": "Icosphere_0"
    },
    {
      "mesh": 1,
      "name": "Icosphere_1"
    },
    {
      "mesh": 2,
      "name": "Icosphere_2"
    }
  ],
  "scene": 0,
  "scenes": [
    {
      "name": "Sketchfab_Scene",
      "nodes": [
        0
      ]
    }
  ]
}
